<?xml version="1.0" standalone="no"?>
<!DOCTYPE svg PUBLIC "-//W3C//DTD SVG 20010904//EN"
 "http://www.w3.org/TR/2001/REC-SVG-20010904/DTD/svg10.dtd">
<svg version="1.0" xmlns="http://www.w3.org/2000/svg"
 width="512.000000pt" height="512.000000pt" viewBox="0 0 512.000000 512.000000"
 preserveAspectRatio="xMidYMid meet">
<metadata>
Created by potrace 1.14, written by Peter Selinger 2001-2017
</metadata>
<g transform="translate(0.000000,512.000000) scale(0.100000,-0.100000)"
fill="#000000" stroke="none">
<path d="M2320 5110 c-502 -52 -982 -248 -1365 -557 -288 -232 -517 -518 -684
-854 -124 -249 -204 -502 -247 -784 -26 -169 -26 -541 0 -710 71 -465 260
-899 543 -1250 232 -288 518 -517 854 -684 249 -124 502 -204 784 -247 169
-26 541 -26 710 0 465 71 899 260 1250 543 288 232 517 518 684 854 124 249
204 502 247 784 26 169 26 541 0 710 -71 465 -260 899 -543 1250 -232 288
-518 517 -854 684 -246 123 -506 205 -779 246 -124 19 -478 28 -600 15z m-45
-1238 c79 -60 225 -202 285 -277 99 -124 152 -253 154 -376 1 -54 -3 -73 -20
-96 -30 -42 -81 -65 -129 -59 -63 8 -93 50 -160 222 -91 234 -168 375 -305
560 l-70 94 37 24 36 25 56 -36 c31 -20 83 -56 116 -81z m1386 78 c177 -54
359 -226 359 -337 0 -42 -4 -50 -70 -117 -61 -63 -81 -94 -168 -266 -401 -791
-937 -1382 -1633 -1800 -225 -135 -585 -311 -598 -292 -28 40 -53 84 -50 86 2
2 23 13 46 25 69 34 272 159 373 229 643 442 1226 1104 1554 1762 100 201 146
324 153 411 5 63 5 67 -27 103 -33 37 -118 86 -212 121 -27 10 -48 22 -48 27
0 5 7 25 15 45 l15 36 114 -6 c67 -4 140 -15 177 -27z m-2403 -282 c91 -63
301 -263 383 -366 111 -138 169 -270 169 -383 0 -103 -42 -149 -136 -149 -72
0 -106 42 -184 227 -108 256 -189 402 -322 577 l-69 91 33 28 c18 15 36 27 41
27 5 0 43 -24 85 -52z"/>
</g>
</svg>
